HIERARCHY
ROOT SpineBase
{
  OFFSET 0.000000 0.000000 0.000000
  CHANNELS 6 Xposition Yposition Zposition Zrotation Xrotation Yrotation
  JOINT SpineMid
  {
    OFFSET 0.000000 10.769264 0.000000
    CHANNELS 3 Zrotation Xrotation Yrotation
    JOINT SpineShoulder
    {
      OFFSET -0.286794 7.900738 -0.289048
      CHANNELS 3 Zrotation Xrotation Yrotation
      JOINT Neck
      {
        OFFSET -0.135705 2.575173 -0.175763
        CHANNELS 3 Zrotation Xrotation Yrotation
        JOINT Head
        {
          OFFSET 1.653285 5.349236 2.853243
          CHANNELS 3 Zrotation Xrotation Yrotation
          End Site
          {
            OFFSET 0 0 0
          }
        }
      }
      JOINT ShoulderLeft
      {
        OFFSET -5.366600 0.923602 3.055432
        CHANNELS 3 Zrotation Xrotation Yrotation
        JOINT ElbowLeft
        {
          OFFSET -3.791552 -12.376103 -1.900162
          CHANNELS 3 Zrotation Xrotation Yrotation
          JOINT WristLeft
          {
            OFFSET -3.755463 -9.653354 -7.824228
            CHANNELS 3 Zrotation Xrotation Yrotation
            JOINT HandLeft
            {
              OFFSET -1.309235 -2.873336 -2.353891
              CHANNELS 3 Zrotation Xrotation Yrotation
              JOINT HandTipLeft
              {
                OFFSET 0.431452 -0.440896 -0.740455
                CHANNELS 3 Zrotation Xrotation Yrotation
                End Site
                {
                  OFFSET 0 0 0
                }
              }
              JOINT ThumbLeft
              {
                OFFSET 0.195425 -0.368095 -0.468798
                CHANNELS 3 Zrotation Xrotation Yrotation
                End Site
                {
                  OFFSET 0 0 0
                }
              }
            }
          }
        }
      }
      JOINT ShoulderRight
      {
        OFFSET 5.763032 0.038209 -5.049873
        CHANNELS 3 Zrotation Xrotation Yrotation
        JOINT ElbowRight
        {
          OFFSET -0.934711 -9.893471 -11.693214
          CHANNELS 3 Zrotation Xrotation Yrotation
          JOINT WristRight
          {
            OFFSET -2.128605 -4.090158 -13.347260
            CHANNELS 3 Zrotation Xrotation Yrotation
            JOINT HandRight
            {
              OFFSET -1.558472 -0.175425 -8.122689
              CHANNELS 3 Zrotation Xrotation Yrotation
              JOINT HandTipRight
              {
                OFFSET 0.437323 -0.396088 -3.156236
                CHANNELS 3 Zrotation Xrotation Yrotation
                End Site
                {
                  OFFSET 0 0 0
                }
              }
              JOINT ThumbRight
              {
                OFFSET 1.133644 1.353644 -1.371969
                CHANNELS 3 Zrotation Xrotation Yrotation
                End Site
                {
                  OFFSET 0 0 0
                }
              }
            }
          }
        }
      }
    }
  }
  JOINT HipLeft
  {
    OFFSET -3.260111 0.015152 0.114181
    CHANNELS 3 Zrotation Xrotation Yrotation
    JOINT KneeLeft
    {
      OFFSET -14.597574 -4.180555 -19.233414
      CHANNELS 3 Zrotation Xrotation Yrotation
      JOINT AnkleLeft
      {
        OFFSET -1.155589 -14.564879 -0.716684
        CHANNELS 3 Zrotation Xrotation Yrotation
        JOINT FootLeft
        {
          OFFSET -2.393311 0.144224 -8.150562
          CHANNELS 3 Zrotation Xrotation Yrotation
          End Site
          {
            OFFSET 0 0 0
          }
        }
      }
    }
  }
  JOINT HipRight
  {
    OFFSET 1.809525 0.020654 -2.989986
    CHANNELS 3 Zrotation Xrotation Yrotation
    JOINT KneeRight
    {
      OFFSET -10.761229 -3.013873 -22.007491
      CHANNELS 3 Zrotation Xrotation Yrotation
      JOINT AnkleRight
      {
        OFFSET -10.529073 -10.378536 -0.841651
        CHANNELS 3 Zrotation Xrotation Yrotation
        JOINT FootRight
        {
          OFFSET -7.502200 1.099864 -1.889831
          CHANNELS 3 Zrotation Xrotation Yrotation
          End Site
          {
            OFFSET 0 0 0
          }
        }
      }
    }
  }
}
MOTION
Frames: 11
Frame Time: 0.033333
219.797407 18.507006 445.586330 -2.304617 8.528527 68.102689 -0.580014 -0.041402 -67.755186 -2.219598 -1.945416 -0.437040 16.347445 -13.598204 -1.656189 0.000000 0.000000 0.000000 16.730351 -7.009972 0.094916 7.879798 -0.208713 -15.307314 17.338705 10.441498 -25.182564 -44.079460 -30.173643 50.107773 0.000000 0.000000 0.000000 0.000000 0.000000 0.000000 13.796786 -3.138098 -9.801600 -7.663684 -11.183747 16.896565 1.277888 6.653630 -8.102531 0.443428 -34.794711 24.629365 0.000000 0.000000 0.000000 0.000000 0.000000 0.000000 -6.738969 -3.590284 -64.990958 52.190818 31.529552 -23.827115 -54.854953 -22.695179 28.728250 0.000000 0.000000 0.000000 -7.032088 -5.488422 -69.436111 -5.229916 1.549549 0.061408 3.775996 -0.082591 9.901404 0.000000 0.000000 0.000000
219.929127 18.378733 445.584282 -2.279626 8.285210 69.012771 -0.154413 0.572083 -68.688612 -2.911011 -2.245901 -0.598433 18.090007 -13.425667 -1.848799 0.000000 0.000000 0.000000 21.107969 -7.251777 0.206598 5.043848 0.484077 -15.509303 27.390036 11.186139 -37.546130 -51.079605 -41.081596 54.175066 0.000000 0.000000 0.000000 0.000000 0.000000 0.000000 16.640246 -4.980825 -11.417854 -9.557192 -10.423138 20.516339 1.769807 6.976928 -7.980357 -0.966096 -26.833374 24.571537 0.000000 0.000000 0.000000 0.000000 0.000000 0.000000 -6.675237 -3.265062 -65.149025 54.717417 32.574932 -26.239823 -56.529034 -24.449422 27.700769 0.000000 0.000000 0.000000 -6.803869 -5.124512 -70.084560 -5.694381 1.593729 -0.289483 4.166614 -0.176374 10.234883 0.000000 0.000000 0.000000
220.135598 18.283807 445.720077 -2.023049 7.625182 69.250999 0.338453 1.153234 -68.974984 -3.173610 -2.208959 -0.643234 18.815873 -13.123905 -2.072462 0.000000 0.000000 0.000000 24.801714 -7.080315 0.042446 -0.848148 1.894834 -13.201463 34.138049 11.489008 -44.697455 -53.509175 -44.520807 54.758255 0.000000 0.000000 0.000000 0.000000 0.000000 0.000000 17.605236 -6.873567 -11.835292 -10.629674 -8.676796 22.020090 2.036680 6.473504 -7.740857 -1.847996 -20.321563 23.589652 0.000000 0.000000 0.000000 0.000000 0.000000 0.000000 -6.148443 -2.378215 -64.405496 54.304269 30.164053 -25.384341 -55.183787 -24.146705 27.938414 0.000000 0.000000 0.000000 -6.422575 -4.588109 -69.373727 -5.856088 2.090017 -1.460319 4.544546 -0.462497 10.519294 0.000000 0.000000 0.000000
220.479650 18.246501 446.046437 -1.361937 6.350328 68.602543 0.842980 1.802714 -68.415144 -2.874882 -2.038629 -0.560097 18.188212 -11.865214 -2.602436 0.000000 0.000000 0.000000 28.837494 -6.280095 -0.615623 -8.034825 0.109780 -9.275000 36.419929 9.141607 -45.726877 -56.418002 -35.972827 55.227001 0.000000 0.000000 0.000000 0.000000 0.000000 0.000000 17.064329 -7.101830 -11.941262 -10.866276 -7.984453 22.251728 2.218438 3.881251 -5.880330 -2.986899 -16.432142 20.759271 0.000000 0.000000 0.000000 0.000000 0.000000 0.000000 -5.027499 -0.651565 -62.609496 51.293027 23.673148 -21.340807 -51.685422 -19.931035 29.273921 0.000000 0.000000 0.000000 -5.420667 -3.581706 -68.696599 -5.330638 2.498722 -1.893472 4.353843 -0.947020 10.589364 0.000000 0.000000 0.000000
220.804360 18.462887 446.527012 0.272456 4.688057 68.217676 1.541922 2.137718 -68.111034 -1.749756 -1.695996 -0.280488 14.013717 -11.001893 -2.623237 0.000000 0.000000 0.000000 28.537353 -5.818617 -1.328360 -15.770374 -1.474128 -3.620060 31.812167 7.281508 -37.387146 -52.221451 -11.817724 54.810714 0.000000 0.000000 0.000000 0.000000 0.000000 0.000000 13.427908 -4.233551 -11.559969 -9.104802 -10.928457 20.549642 1.959443 5.031807 -5.587471 -2.704049 -20.062347 22.728961 0.000000 0.000000 0.000000 0.000000 0.000000 0.000000 -3.514930 2.117332 -63.131705 40.442890 25.562350 -17.605461 -43.135456 -16.828939 32.120809 0.000000 0.000000 0.000000 -4.455513 -1.484855 -68.286594 -3.747461 2.226445 -1.818779 3.147924 -0.951002 9.253238 0.000000 0.000000 0.000000
221.099616 18.623020 446.629070 1.632467 4.534646 69.379565 1.150963 2.246014 -69.330350 -1.366299 -1.094472 -0.138272 11.627378 -11.142388 -2.387713 0.000000 0.000000 0.000000 25.935639 -6.108542 -1.291742 -19.099232 -2.214566 0.287301 18.559877 3.191226 -19.255807 -39.004563 25.027567 50.475626 0.000000 0.000000 0.000000 0.000000 0.000000 0.000000 10.358802 -2.791352 -10.061068 -7.391800 -11.970764 17.890087 1.614522 6.377784 -5.632211 -2.644957 -13.261879 20.931077 0.000000 0.000000 0.000000 0.000000 0.000000 0.000000 -3.270032 4.846603 -63.439560 37.874411 16.536179 -13.610005 -41.374711 -8.405656 35.027953 0.000000 0.000000 0.000000 -4.768754 0.163427 -68.468255 -3.293268 2.306561 -2.972286 3.380680 -1.185446 9.288036 0.000000 0.000000 0.000000
221.010856 18.704971 447.031247 1.475295 3.089475 69.475077 1.678569 1.743879 -69.389368 -0.786650 -0.326808 -0.007918 10.018634 -10.993297 -2.269142 0.000000 0.000000 0.000000 20.382267 -6.165728 -1.052339 -17.918608 -2.029215 2.347183 7.273432 -3.364187 -4.512250 -16.162276 46.259093 35.076999 0.000000 0.000000 0.000000 0.000000 0.000000 0.000000 6.513049 0.542832 -7.402128 -4.557692 -14.356545 13.564151 1.162587 6.792774 -4.634976 -2.661194 -8.874237 19.700459 0.000000 0.000000 0.000000 0.000000 0.000000 0.000000 -1.440865 5.613881 -64.270146 27.228923 7.691693 -8.188026 -29.799525 -1.306255 33.914157 0.000000 0.000000 0.000000 -3.386319 0.470578 -68.697275 -2.431167 1.932046 -2.522122 2.632322 -0.960073 8.281994 0.000000 0.000000 0.000000
220.869777 18.790896 447.319018 1.464432 1.997468 69.973725 1.618355 1.366814 -69.885034 -0.214975 0.595680 0.095423 8.849292 -10.740175 -2.254463 0.000000 0.000000 0.000000 15.505872 -6.514488 -0.656171 -14.979754 -1.049643 2.376127 5.135881 -4.568694 -2.008302 -12.617698 34.715432 29.698519 0.000000 0.000000 0.000000 0.000000 0.000000 0.000000 4.711704 1.713853 -6.554285 -4.017222 -14.072497 12.147324 1.155962 5.724275 -4.582025 -2.662197 -6.767535 19.556603 0.000000 0.000000 0.000000 0.000000 0.000000 0.000000 -0.584358 5.484377 -65.039481 23.511203 -6.150195 -4.130095 -24.383755 8.489747 31.659543 0.000000 0.000000 0.000000 -2.377998 0.692080 -69.984892 -1.465659 1.725430 -1.587018 1.546515 -0.810856 7.728664 0.000000 0.000000 0.000000
220.492110 18.779935 446.292016 0.465159 5.910662 70.912339 -0.892748 -0.222238 -70.742904 0.461992 -0.392205 0.128608 8.768672 -10.804173 -2.383295 0.000000 0.000000 0.000000 10.372707 -7.524853 0.018399 -9.852876 0.729298 0.797417 2.927073 -4.532371 -0.085762 -10.991602 34.115660 29.648336 0.000000 0.000000 0.000000 0.000000 0.000000 0.000000 4.066934 2.921609 -6.329529 -3.627232 -15.080016 11.514989 1.062369 5.744006 -5.230311 -2.685373 7.873580 18.507441 0.000000 0.000000 0.000000 0.000000 0.000000 0.000000 -4.389875 2.382522 -66.046347 18.033627 -12.537123 -2.956681 -19.801511 15.703130 31.542063 0.000000 0.000000 0.000000 -5.976708 -1.567383 -70.081853 -0.679466 1.384578 -2.000937 0.318731 0.035918 8.575447 0.000000 0.000000 0.000000
220.409032 18.891170 445.964373 0.657657 6.450715 71.853015 -0.970386 0.275943 -71.707094 0.806666 -0.960058 0.147393 9.927367 -10.706741 -2.967940 0.000000 0.000000 0.000000 6.447827 -8.535061 0.571695 -3.645155 2.224598 -2.406909 0.770492 -0.484037 -0.323949 -12.512226 28.756280 32.018215 0.000000 0.000000 0.000000 0.000000 0.000000 0.000000 3.284876 5.123437 -5.693255 -2.444776 -18.532529 10.867277 0.576432 11.735129 -7.409036 -2.227536 7.308439 20.371874 0.000000 0.000000 0.000000 0.000000 0.000000 0.000000 -5.247997 2.069550 -66.695144 12.915901 -5.198273 -4.907067 -15.474508 10.642738 32.928233 0.000000 0.000000 0.000000 -6.789899 -1.635750 -70.866773 -0.092932 0.512454 -1.111211 -0.590773 1.222174 7.730399 0.000000 0.000000 0.000000
220.615881 18.865440 446.021257 1.276507 5.912065 71.200831 -0.778706 0.685392 -71.092841 0.755860 -1.005609 0.145229 10.221792 -10.053703 -3.426866 0.000000 0.000000 0.000000 2.646624 -8.236000 0.668550 3.908607 4.570979 -7.676678 2.971660 -1.638831 -1.572400 -21.600703 24.772504 38.522742 0.000000 0.000000 0.000000 0.000000 0.000000 0.000000 3.630707 5.005220 -6.321300 -3.151993 -18.126059 12.371546 0.951585 17.559610 -11.096069 -1.373604 -2.180037 24.907204 0.000000 0.000000 0.000000 0.000000 0.000000 0.000000 -5.818637 1.688805 -65.147783 23.412865 -6.205118 -5.603837 -25.854249 9.550543 34.456859 0.000000 0.000000 0.000000 -6.402257 -0.850646 -69.924729 -0.012747 0.424247 -1.383653 -0.833599 1.195013 7.205654 0.000000 0.000000 0.000000
